<svg xmlns="http://www.w3.org/2000/svg" viewBox="0 0 512 512">
  <defs>
    <linearGradient id="bgGrad" x1="0%" y1="0%" x2="100%" y2="100%">
      <stop offset="0%" style="stop-color:#1a472a"/>
      <stop offset="100%" style="stop-color:#2d5a3f"/>
    </linearGradient>
    <linearGradient id="leafGrad" x1="0%" y1="0%" x2="100%" y2="100%">
      <stop offset="0%" style="stop-color:#7cb342"/>
      <stop offset="100%" style="stop-color:#a5d662"/>
    </linearGradient>
  </defs>
  
  <!-- Background -->
  <rect width="512" height="512" rx="100" fill="url(#bgGrad)"/>
  
  <!-- Plant pot -->
  <path d="M180 380 L200 320 L312 320 L332 380 L320 390 L192 390 Z" fill="#8d6e63"/>
  <ellipse cx="256" cy="320" rx="60" ry="15" fill="#6d4c41"/>
  
  <!-- Main stem -->
  <path d="M256 320 Q256 280 256 220" stroke="#4caf50" stroke-width="12" fill="none" stroke-linecap="round"/>
  
  <!-- Left leaf -->
  <path d="M256 250 Q200 220 180 160 Q200 180 240 200 Q220 160 230 120 Q260 180 256 250" fill="url(#leafGrad)"/>
  
  <!-- Right leaf -->
  <path d="M256 220 Q300 190 340 150 Q310 180 280 200 Q320 170 310 130 Q270 180 256 220" fill="url(#leafGrad)"/>
  
  <!-- Center leaf -->
  <path d="M256 200 Q280 140 256 90 Q232 140 256 200" fill="#8bc34a"/>
  
  <!-- Water drop -->
  <path d="M380 280 Q380 250 400 230 Q420 250 420 280 Q420 300 400 310 Q380 300 380 280" fill="#42a5f5"/>
  <ellipse cx="390" cy="265" rx="6" ry="8" fill="#90caf9"/>
</svg>
